<?xml version="1.0" standalone="no"?>
<!DOCTYPE svg PUBLIC "-//W3C//DTD SVG 20010904//EN"
 "http://www.w3.org/TR/2001/REC-SVG-20010904/DTD/svg10.dtd">
<svg version="1.0" xmlns="http://www.w3.org/2000/svg"
 width="211.000000pt" height="251.000000pt" viewBox="0 0 211.000000 251.000000"
 preserveAspectRatio="xMidYMid meet">
<g transform="translate(0.000000,251.000000) scale(0.100000,-0.100000)"
fill="black" stroke="none">
<path d="M757 2443 c-28 -45 -117 -495 -132 -668 -11 -129 6 -126 -173 -33
-259 136 -446 220 -450 202 -2 -8 29 -81 68 -162 153 -314 222 -463 217 -468
-3 -3 -43 10 -89 30 -92 39 -186 76 -193 76 -3 0 -5 -18 -5 -41 0 -39 11 -52
275 -349 l276 -310 -16 -29 c-59 -114 58 -277 185 -257 33 5 41 2 77 -32 22
-21 58 -43 82 -50 66 -20 331 -53 370 -46 71 13 339 139 383 181 14 14 32 38
38 53 9 21 22 31 56 39 63 16 119 74 132 138 17 78 -3 140 -60 188 l-32 27 32
96 c104 312 284 884 279 888 -1 1 -69 -78 -152 -177 -82 -98 -152 -179 -155
-179 -4 0 -10 80 -14 178 -7 195 -42 661 -49 668 -6 7 -151 -225 -258 -411
-47 -82 -91 -150 -97 -150 -5 0 -57 52 -113 115 -161 180 -475 494 -482 483z
m558 -1183 c-8 -30 -15 -56 -15 -56 0 -1 47 13 105 32 97 32 135 40 135 30 0
-6 -60 -140 -65 -144 -2 -2 -28 10 -58 27 l-55 31 -29 -37 c-46 -58 -49 -73
-6 -25 l38 42 40 -22 c35 -19 53 -21 144 -19 115 3 112 6 54 -66 -18 -23 -33
-44 -33 -47 0 -3 20 -11 43 -17 l44 -11 -2 -206 c0 -132 -5 -214 -12 -227 -25
-44 -75 -78 -213 -142 l-145 -68 -100 1 c-136 2 -289 29 -341 59 -47 28 -65
59 -90 160 -10 38 -34 113 -55 167 l-37 99 34 27 c19 15 34 30 34 33 0 3 -25
23 -55 45 -30 21 -55 42 -55 45 0 3 35 14 78 24 109 25 110 26 66 64 -20 18
-49 47 -63 64 l-25 30 127 -5 c70 -3 127 -3 127 -1 0 3 -13 28 -30 55 -16 26
-30 51 -30 54 0 3 57 -24 126 -60 l126 -65 100 95 c55 53 101 94 103 92 3 -2
-2 -28 -10 -58z m472 -375 c34 -24 57 -96 48 -152 -11 -75 -98 -149 -151 -129
-24 9 -13 49 16 56 27 6 70 62 70 92 0 10 -7 32 -15 48 -14 27 -14 30 0 30 23
0 48 -46 41 -75 -7 -28 8 -35 18 -8 9 23 -12 81 -34 93 -27 15 -62 12 -88 -6
-21 -15 -22 -14 -22 15 0 18 7 34 18 40 25 15 74 13 99 -4z m-46 -102 c18 -47
-10 -103 -52 -103 -16 0 -19 7 -19 49 0 65 7 81 36 81 17 0 28 -8 35 -27z
m-1069 -55 c9 -7 19 -23 22 -35 7 -20 5 -21 -24 -13 -70 20 -120 -36 -94 -104
12 -31 22 -15 17 26 -5 33 -2 44 12 55 29 21 33 16 27 -33 -4 -40 -1 -49 24
-75 19 -20 37 -29 60 -29 23 0 33 -5 37 -19 7 -28 -11 -41 -56 -41 -79 0 -147
76 -147 164 0 86 69 145 122 104z m22 -84 c20 -20 31 -41 40 -76 6 -26 4 -28
-23 -28 -36 0 -61 31 -61 76 0 46 16 56 44 28z"/>
<path d="M851 1075 c-41 -47 -40 -57 2 -17 l33 32 49 -27 c58 -30 46 -8 -13
25 l-40 22 -31 -35z"/>
<path d="M1384 994 c-22 -7 -51 -28 -66 -45 -25 -30 -27 -38 -22 -93 10 -112
24 -163 51 -190 32 -32 63 -33 91 -3 18 19 22 35 22 88 0 35 -3 74 -6 87 -6
22 -8 22 -25 6 -15 -14 -21 -14 -34 -4 -19 16 -19 59 0 66 22 9 8 24 -23 24
-32 0 -45 -8 -60 -35 -6 -11 -12 -15 -12 -8 0 23 62 83 96 92 99 27 184 -61
184 -191 0 -44 3 -59 10 -48 13 20 12 90 -1 131 -34 100 -120 152 -205 123z"/>
<path d="M840 897 c-76 -51 -98 -163 -51 -255 12 -24 25 -42 27 -39 3 3 -2 19
-11 37 -22 43 -30 120 -16 162 15 46 60 88 105 98 39 9 101 -3 112 -21 4 -7
-1 -9 -15 -4 -59 19 -96 -36 -88 -131 10 -135 92 -206 145 -126 16 25 20 120
7 163 -6 19 -8 20 -26 3 -15 -14 -21 -14 -34 -4 -20 17 -19 57 2 69 13 7 23 5
35 -6 34 -30 18 6 -17 42 -32 31 -41 35 -89 35 -38 0 -62 -6 -86 -23z"/>
<path d="M1204 624 c3 -8 6 -20 6 -25 0 -6 5 -7 10 -4 15 10 12 32 -6 39 -12
5 -15 2 -10 -10z"/>
<path d="M1292 508 c-20 -20 -33 -23 -106 -23 -89 0 -104 -10 -33 -20 54 -8
118 8 154 40 16 13 23 25 18 25 -6 0 -21 -10 -33 -22z"/>
<path d="M1712 538 c-5 -7 -13 -44 -17 -81 l-7 -68 -33 7 c-46 8 -75 -10 -75
-47 0 -22 6 -32 25 -39 14 -5 31 -25 39 -45 12 -27 27 -41 68 -60 83 -39 170
-28 198 25 6 11 31 30 56 41 29 14 46 29 50 45 8 32 -13 57 -43 51 -27 -5 -27
-6 -9 28 18 34 7 69 -23 73 -12 2 -29 -2 -37 -8 -12 -11 -14 -7 -14 22 0 59
-46 79 -76 33 l-17 -26 -18 31 c-19 31 -49 39 -67 18z m43 -89 c0 -52 3 -64
17 -67 19 -4 41 33 53 85 8 37 22 50 37 35 8 -8 6 -24 -5 -54 -21 -54 -22 -88
-3 -88 15 0 66 55 66 71 0 5 7 9 15 9 22 0 19 -13 -15 -55 -47 -59 -36 -89 22
-61 38 20 48 20 48 2 0 -7 -14 -19 -31 -27 -18 -7 -49 -30 -70 -51 -33 -33
-43 -38 -84 -38 -60 0 -114 25 -134 63 -9 16 -28 41 -43 55 -15 14 -25 29 -22
33 9 15 54 10 60 -6 17 -44 54 16 54 90 0 44 11 76 24 72 6 -2 11 -30 11 -68z"/>
<path d="M1762 313 c15 -28 24 -37 26 -27 2 9 -8 28 -22 43 l-27 26 23 -42z"/>
<path d="M683 373 c-7 -2 -13 -19 -13 -36 l0 -30 -23 21 c-43 41 -84 18 -74
-42 5 -30 3 -33 -14 -29 -52 14 -66 -54 -18 -89 l31 -23 -29 -5 c-22 -4 -29
-11 -31 -35 -5 -36 19 -55 69 -55 20 0 58 -9 84 -21 56 -25 96 -20 145 16 49
36 70 73 70 125 1 25 7 56 15 70 18 32 18 35 -1 54 -22 22 -54 20 -80 -5 l-23
-22 -25 57 c-25 56 -42 66 -83 49z m66 -79 c13 -31 30 -58 38 -61 9 -3 26 8
43 28 22 27 31 31 41 22 9 -9 8 -18 -5 -39 -12 -17 -16 -38 -13 -58 7 -45 -15
-90 -59 -120 -43 -29 -86 -33 -124 -11 -14 8 -37 14 -51 15 -33 0 -89 19 -89
30 0 5 21 10 48 12 72 5 65 24 -34 84 -15 9 -16 15 -7 24 8 9 21 6 57 -15 69
-40 88 -17 36 45 -28 32 -40 70 -23 70 4 0 24 -18 44 -40 20 -22 42 -40 48
-40 20 0 24 31 8 65 -9 18 -13 36 -10 39 16 16 31 1 52 -50z"/>
<path d="M761 192 c-14 -26 -14 -69 -1 -77 7 -4 9 2 5 18 -4 14 -1 35 5 47 6
12 9 24 7 27 -3 2 -10 -4 -16 -15z"/>
</g>
</svg>
