<?xml version="1.0" standalone="no"?>
<!DOCTYPE svg PUBLIC "-//W3C//DTD SVG 20010904//EN"
 "http://www.w3.org/TR/2001/REC-SVG-20010904/DTD/svg10.dtd">
<svg version="1.0" xmlns="http://www.w3.org/2000/svg"
 width="800.000000pt" height="800.000000pt" viewBox="0 0 800.000000 800.000000"
 preserveAspectRatio="xMidYMid meet">

<g transform="translate(0.000000,800.000000) scale(0.100000,-0.100000)"
fill="#6F76E9" stroke="none">
<path d="M3500 7982 c0 -26 25 -75 50 -97 11 -10 20 -24 20 -30 0 -7 7 -18 14
-25 22 -18 56 -93 56 -123 0 -15 4 -27 9 -27 9 0 14 -31 27 -145 3 -27 10 -54
15 -59 5 -6 9 -26 9 -46 0 -27 -9 -45 -36 -75 l-35 -39 -32 19 c-18 10 -34 21
-37 25 -11 13 -119 80 -165 102 -28 12 -51 26 -53 31 -2 4 -12 7 -22 7 -10 0
-20 3 -22 8 -4 9 -87 52 -101 52 -7 0 -33 11 -59 24 -25 13 -62 26 -81 30 -63
12 -128 53 -213 136 -46 45 -84 86 -84 91 0 11 -39 80 -56 100 -8 8 -14 21
-14 27 0 7 -14 12 -32 12 -28 0 -36 -6 -52 -40 -11 -22 -22 -40 -25 -40 -5 0
-56 -101 -75 -150 -4 -8 -15 -28 -25 -45 -11 -16 -20 -37 -20 -45 -1 -13 -11
-36 -53 -122 -4 -10 -8 -26 -8 -36 0 -10 -5 -23 -11 -29 -16 -16 -23 -208 -9
-278 20 -107 22 -115 31 -115 18 0 8 -51 -13 -73 -42 -43 -57 -50 -71 -39 -9
8 -116 13 -308 16 -317 5 -439 12 -439 27 0 5 -9 9 -19 9 -11 0 -38 10 -60 22
-49 26 -191 154 -191 172 0 7 -11 23 -25 36 -38 36 -59 18 -63 -51 -1 -30 -7
-63 -13 -75 -7 -13 -8 -48 -4 -90 3 -38 8 -124 11 -191 3 -68 9 -123 15 -123
5 0 9 -15 9 -34 0 -19 4 -38 10 -41 6 -3 10 -13 10 -22 0 -14 9 -39 51 -131
11 -24 17 -47 14 -51 -2 -5 4 -16 15 -26 11 -10 20 -23 20 -30 0 -7 9 -20 20
-30 34 -30 35 -54 4 -86 -23 -24 -36 -29 -75 -29 -26 0 -51 -4 -54 -10 -3 -5
-22 -10 -41 -10 -19 0 -34 -4 -34 -10 0 -5 -15 -10 -34 -10 -19 0 -37 -4 -40
-9 -4 -5 -25 -12 -48 -16 -23 -4 -55 -16 -72 -26 -17 -10 -41 -23 -54 -29 -12
-5 -25 -17 -28 -25 -4 -8 -13 -15 -21 -15 -9 0 -23 -8 -32 -18 -9 -9 -32 -29
-51 -43 -52 -39 -160 -148 -160 -162 0 -7 -3 -22 -6 -34 -6 -20 -3 -23 24 -23
29 0 92 -46 92 -68 0 -12 -163 -152 -177 -152 -6 0 -18 -9 -28 -20 -10 -11
-22 -20 -26 -20 -5 0 -37 -13 -71 -30 -34 -16 -74 -30 -89 -30 -15 0 -31 -4
-34 -10 -3 -5 -37 -10 -75 -10 -38 0 -72 5 -75 10 -3 6 -17 10 -30 10 -13 0
-26 4 -30 10 -3 5 -12 7 -19 4 -8 -3 -17 -1 -21 5 -3 6 -22 11 -41 11 -34 0
-34 0 -34 -45 0 -25 4 -45 10 -45 5 0 21 -21 35 -47 70 -130 88 -160 111 -184
13 -14 24 -30 24 -35 0 -6 9 -19 20 -29 11 -10 20 -22 20 -28 0 -5 13 -26 30
-47 16 -21 30 -42 30 -47 0 -5 22 -31 50 -58 27 -27 50 -55 50 -62 0 -7 12
-19 28 -27 15 -8 40 -28 56 -45 17 -17 35 -31 42 -31 6 0 17 -7 24 -16 8 -8
29 -22 49 -30 19 -8 38 -18 41 -22 9 -13 92 -52 109 -52 16 0 91 -68 91 -83 0
-11 -53 -56 -65 -57 -6 0 -17 -9 -25 -20 -8 -11 -21 -20 -30 -20 -9 0 -22 -9
-30 -20 -8 -11 -19 -20 -25 -20 -13 0 -165 -148 -165 -161 0 -5 -9 -19 -20
-31 -10 -11 -26 -35 -34 -53 -9 -18 -22 -38 -31 -45 -8 -7 -15 -16 -15 -21 0
-5 -18 -36 -40 -68 -22 -32 -40 -67 -40 -78 0 -11 -3 -23 -7 -27 -7 -7 -10
-19 -20 -78 -4 -30 -2 -38 10 -38 9 0 19 5 22 10 3 6 22 10 41 10 19 0 34 3
34 8 0 9 45 28 90 37 19 4 41 11 50 16 8 4 29 11 45 15 17 4 32 8 35 9 3 1 20
6 38 10 18 4 35 12 38 16 3 5 14 9 25 9 10 0 28 5 39 12 17 11 24 8 50 -17 37
-35 38 -54 5 -85 -14 -13 -25 -28 -25 -34 0 -15 -142 -156 -156 -156 -6 0 -19
-9 -29 -20 -10 -11 -24 -20 -30 -20 -7 0 -18 -7 -25 -16 -22 -25 -120 -64
-180 -70 -136 -15 -130 -12 -130 -53 0 -23 7 -44 18 -54 9 -9 34 -32 54 -52
21 -19 41 -35 46 -35 5 0 17 -9 27 -20 10 -11 22 -20 27 -20 4 0 30 -15 56
-33 26 -18 54 -37 62 -41 31 -14 60 -33 77 -49 25 -22 126 -74 171 -87 67 -20
156 -41 197 -47 22 -3 44 -9 49 -14 6 -5 27 -9 47 -9 21 0 41 -4 44 -10 3 -5
44 -10 90 -10 83 0 83 0 114 -36 l32 -36 -19 -33 c-11 -18 -23 -51 -27 -74 -4
-22 -11 -43 -16 -47 -5 -3 -9 -21 -9 -40 0 -19 -4 -34 -10 -34 -6 0 -10 -33
-10 -80 0 -44 -4 -80 -9 -80 -6 0 -12 -60 -15 -133 -3 -72 -7 -163 -8 -202
l-3 -70 30 -3 c27 -2 46 14 180 148 82 82 157 150 165 150 23 0 68 -56 84
-103 18 -54 57 -127 68 -127 4 0 8 -5 8 -11 0 -6 12 -27 28 -45 73 -90 82
-102 82 -109 0 -3 11 -21 25 -39 14 -19 25 -46 25 -64 0 -18 5 -32 10 -32 6 0
10 -15 10 -34 0 -19 4 -37 9 -40 12 -8 74 19 91 38 18 23 33 20 66 -15 16 -17
53 -44 82 -60 28 -17 52 -35 52 -40 0 -5 9 -9 20 -9 11 0 20 -4 20 -10 0 -5 9
-10 20 -10 11 0 20 -4 20 -9 0 -5 8 -11 18 -15 9 -3 31 -11 47 -17 17 -6 48
-13 70 -16 53 -7 247 -6 307 0 46 6 48 5 88 -40 22 -25 40 -51 40 -57 0 -30
171 -166 209 -166 11 0 23 -5 26 -10 3 -5 17 -10 31 -10 13 0 24 -4 24 -10 0
-5 11 -10 24 -10 14 0 27 -4 31 -9 3 -6 13 -10 23 -11 61 -3 128 -13 137 -21
5 -5 34 -9 65 -9 31 0 60 -3 63 -7 4 -3 38 -5 76 -4 40 1 72 -2 76 -8 3 -7 42
-11 90 -11 46 0 87 -4 90 -10 3 -5 42 -10 86 -10 46 0 79 -4 79 -10 0 -6 40
-10 100 -10 60 0 100 -4 100 -10 0 -6 45 -10 114 -10 66 0 117 -4 121 -10 8
-13 292 -13 300 0 3 5 28 10 56 10 27 0 49 5 49 10 0 6 9 10 19 10 11 0 36 8
58 19 68 33 113 51 131 52 9 0 31 9 47 19 17 11 46 27 65 37 19 9 42 25 51 35
9 10 24 18 33 18 9 0 16 4 16 9 0 5 8 11 18 15 9 3 37 21 62 40 25 19 50 35
56 35 5 1 23 15 39 31 16 17 35 30 42 30 8 0 16 7 19 15 4 8 11 15 16 15 6 0
27 14 48 30 21 17 41 30 45 30 4 0 16 11 27 25 11 14 25 25 32 25 7 0 25 13
41 30 16 16 34 30 40 30 6 0 24 13 40 30 16 16 34 30 40 30 6 0 33 22 60 50
27 27 54 50 60 50 6 0 24 14 40 30 16 17 34 30 39 30 20 0 196 196 196 217 0
6 9 18 20 28 11 10 20 24 20 32 0 32 66 115 112 139 15 8 38 14 52 14 14 0 28
5 31 10 3 6 16 10 29 10 12 0 31 7 42 15 10 8 27 15 37 15 9 0 17 3 17 8 0 4
15 13 33 21 36 15 187 159 187 178 0 7 4 13 9 13 10 0 91 159 91 178 0 36 75
122 106 122 13 0 26 -4 29 -10 4 -6 57 -10 126 -10 73 0 119 4 119 10 0 6 18
10 40 10 22 0 49 5 60 10 11 6 29 15 40 20 11 5 29 10 39 10 11 0 23 5 26 10
4 6 12 9 18 8 23 -5 75 24 81 45 6 25 -19 57 -45 57 -10 0 -21 5 -24 10 -3 6
-15 10 -26 10 -28 0 -57 19 -114 75 -53 53 -75 85 -75 110 0 8 -5 25 -12 38
-25 49 -28 58 -28 82 0 14 -4 33 -9 43 -5 9 -24 62 -41 117 -18 55 -36 104
-41 110 -5 5 -9 17 -9 27 0 10 -4 18 -10 18 -5 0 -10 11 -10 24 0 31 64 89 90
81 10 -3 21 -1 25 5 3 5 17 10 30 10 13 0 27 5 30 10 3 6 16 10 28 10 12 0 33
9 47 20 14 11 34 20 44 20 11 0 28 7 38 17 10 9 26 21 36 27 63 38 92 59 92
67 0 5 7 9 15 9 17 0 245 221 245 237 0 5 14 22 31 39 17 16 35 38 40 49 5 11
22 40 38 65 16 25 30 51 30 58 1 9 -28 12 -112 12 -108 0 -116 2 -178 33 -36
18 -80 44 -98 57 -54 41 -221 203 -221 215 0 6 15 25 33 43 33 32 61 41 72 22
3 -5 33 -10 65 -10 32 0 62 -4 65 -10 3 -5 22 -10 41 -10 19 0 34 -4 34 -10 0
-5 15 -10 34 -10 19 0 38 -5 42 -11 3 -6 15 -8 26 -6 11 3 35 -3 54 -14 42
-23 39 -23 58 -3 23 22 20 39 -12 76 -15 18 -38 54 -50 79 -12 26 -29 52 -37
59 -8 7 -15 19 -15 26 0 8 -4 14 -8 14 -5 0 -15 12 -23 28 -8 15 -22 33 -31
40 -10 7 -18 19 -18 25 0 30 -168 167 -205 167 -8 0 -15 3 -15 8 0 10 -50 32
-71 32 -10 0 -21 5 -24 10 -3 6 -17 10 -29 10 -35 0 -126 54 -126 75 0 4 28
35 63 69 64 65 107 118 107 134 0 5 6 15 14 21 8 7 26 34 39 60 14 26 34 63
44 82 11 19 27 59 37 89 9 30 21 64 26 75 11 24 30 106 37 158 l5 37 -61 0
c-34 0 -61 -4 -61 -10 0 -6 -33 -10 -79 -10 -44 0 -83 5 -86 10 -3 6 -24 10
-45 10 -21 0 -42 5 -45 10 -3 6 -14 10 -25 10 -10 0 -45 14 -78 30 -34 17 -70
30 -81 30 -11 0 -23 5 -26 10 -3 6 -17 10 -30 10 -13 0 -25 3 -27 8 -5 12 -88
52 -108 52 -11 0 -22 5 -25 10 -3 6 -14 10 -23 10 -18 1 -72 43 -72 58 0 4 13
20 28 35 20 19 39 27 64 27 20 0 40 5 43 10 3 6 44 10 90 10 46 0 87 5 90 10
3 6 17 10 31 10 59 0 -2 61 -121 120 -27 14 -51 28 -53 33 -2 4 -8 7 -13 7 -5
0 -32 11 -59 24 -27 13 -76 32 -107 42 -32 9 -62 21 -67 26 -6 4 -25 8 -43 8
-18 0 -33 5 -33 10 0 6 -35 10 -86 10 -83 0 -87 1 -115 31 -28 30 -29 33 -14
55 8 13 15 30 15 39 0 8 5 15 10 15 6 0 10 11 10 24 0 14 5 28 10 31 6 3 10
24 10 45 0 21 5 42 10 45 6 4 10 65 10 150 0 85 -4 146 -10 150 -5 3 -10 22
-10 41 0 32 -2 34 -32 34 -19 0 -45 -11 -67 -27 -37 -29 -42 -32 -126 -79
l-50 -28 -273 -4 c-161 -2 -278 0 -285 6 -14 11 -152 10 -163 -1 -4 -4 -33 -7
-65 -7 -32 0 -61 -4 -64 -10 -3 -5 -30 -10 -59 -10 -45 0 -56 4 -81 30 l-29
30 61 60 c33 33 65 60 71 60 5 0 16 7 23 17 8 9 32 24 54 34 22 10 51 29 65
43 13 15 28 26 33 26 22 0 67 43 67 65 0 29 -18 32 -215 39 -183 6 -167 6
-350 0 -166 -6 -220 -11 -250 -24 -25 -10 -75 -24 -95 -25 -20 -1 -107 -43
-115 -55 -3 -5 -23 -17 -43 -27 -70 -32 -182 -124 -182 -148 0 -6 -18 -28 -39
-49 l-40 -39 -29 24 c-17 15 -52 71 -87 144 -49 102 -69 131 -134 198 -41 42
-81 77 -87 77 -6 0 -19 9 -30 21 -20 22 -89 59 -111 59 -7 0 -28 9 -48 20 -20
11 -44 20 -55 20 -11 0 -20 5 -20 10 0 6 -20 10 -45 10 -37 0 -45 -3 -45 -18z
m-806 -144 c40 -100 80 -161 136 -206 61 -49 109 -73 345 -173 293 -124 412
-195 477 -286 39 -54 64 -56 77 -5 48 188 59 368 29 482 -10 36 -36 101 -58
144 -22 44 -38 82 -35 84 23 23 212 -161 293 -285 83 -128 127 -240 167 -425
3 -16 10 -28 15 -28 5 0 32 45 60 100 66 127 123 201 211 271 132 106 299 168
509 189 139 13 432 31 438 26 9 -10 -11 -24 -95 -66 -66 -34 -107 -63 -163
-120 -71 -70 -179 -218 -244 -335 -16 -27 -42 -65 -59 -82 -47 -50 -26 -49 49
3 118 81 241 131 403 165 83 18 133 20 426 19 449 0 531 15 653 125 62 56 74
57 67 8 -38 -286 -54 -350 -123 -488 -37 -76 -70 -122 -141 -200 -53 -57 -43
-68 31 -36 24 10 85 29 133 41 75 19 108 22 209 18 110 -4 132 -8 246 -47 132
-45 185 -69 176 -78 -2 -3 -52 -6 -108 -8 -95 -2 -113 -6 -209 -44 -117 -47
-313 -151 -314 -166 0 -6 59 -15 135 -22 224 -20 275 -34 593 -157 171 -66
226 -79 347 -80 91 0 111 3 153 23 26 13 50 21 53 18 8 -8 -147 -285 -219
-392 -40 -59 -108 -136 -199 -226 -130 -128 -155 -159 -125 -159 34 0 209 -31
257 -46 66 -19 194 -82 256 -125 46 -32 254 -261 254 -280 0 -14 -12 -10 -110
31 -109 46 -201 55 -341 36 -138 -19 -189 -33 -189 -50 0 -7 20 -27 45 -46 25
-18 83 -80 130 -136 153 -182 220 -235 354 -279 41 -13 72 -16 128 -12 40 3
73 2 73 -2 0 -13 -293 -271 -405 -357 -119 -91 -191 -128 -344 -174 -62 -19
-116 -41 -118 -48 -3 -7 11 -48 31 -91 39 -83 60 -148 105 -331 56 -222 127
-321 260 -361 23 -7 40 -17 38 -23 -17 -52 -448 -54 -500 -1 -8 8 -14 43 -15
97 -6 269 -141 469 -375 553 l-62 23 -6 208 c-6 218 -16 284 -65 435 -72 222
-272 503 -467 657 -101 79 -98 72 23 -55 194 -203 297 -353 370 -540 94 -240
104 -560 29 -912 -26 -121 -87 -311 -100 -311 -5 0 -9 1 -9 3 0 2 -7 52 -15
113 -20 154 -65 276 -168 462 -30 54 -54 115 -67 169 -53 222 -162 404 -357
594 -76 74 -147 129 -168 129 -5 0 40 -51 102 -112 187 -189 308 -394 355
-601 16 -71 21 -127 22 -247 0 -224 -13 -259 -54 -132 -41 129 -176 375 -251
458 -33 36 -25 47 31 40 28 -4 58 -10 67 -13 10 -4 14 -2 9 5 -9 14 -110 52
-141 52 -17 0 -56 29 -125 92 -114 105 -214 181 -311 239 -42 25 -108 82 -179
154 -61 63 -117 115 -124 115 -6 0 -19 9 -29 20 -20 23 -191 151 -227 170
l-25 13 25 -28 c14 -15 53 -50 88 -78 34 -28 62 -54 62 -59 0 -24 -197 25
-306 76 -68 32 -236 139 -334 213 -113 85 -230 221 -251 293 -7 21 -9 57 -5
82 6 42 8 44 79 76 39 17 104 41 142 52 397 114 809 104 1145 -27 102 -39 293
-138 345 -178 26 -20 50 -33 53 -31 16 16 -169 256 -291 377 -149 148 -273
236 -469 329 -141 67 -258 99 -388 107 -290 16 -507 -92 -684 -341 -37 -53
-72 -94 -77 -91 -24 16 -51 105 -56 187 -16 259 137 537 400 726 45 33 92 62
104 66 23 7 49 33 41 42 -9 9 -262 -25 -380 -50 -245 -54 -382 -119 -503 -241
-91 -91 -142 -181 -175 -310 -49 -190 -12 -365 101 -490 28 -29 45 -56 40 -60
-15 -8 -200 40 -290 76 -151 60 -292 149 -368 233 -71 78 -96 133 -101 228 -3
43 -8 81 -13 83 -12 8 -84 -122 -107 -195 -12 -36 -26 -105 -33 -153 -25 -197
49 -428 170 -528 84 -69 217 -119 317 -119 52 0 159 21 221 42 46 17 50 5 14
-39 -59 -75 -121 -258 -121 -362 0 -113 48 -243 120 -327 22 -25 40 -49 40
-53 0 -4 -8 -41 -19 -82 -10 -41 -22 -107 -26 -148 -5 -48 -18 -97 -35 -135
-52 -113 -104 -291 -116 -401 -9 -83 -17 -95 -62 -95 -42 0 -185 -32 -226 -51
-16 -8 -30 -9 -36 -3 -18 18 -41 230 -41 389 -1 292 43 474 188 778 36 76 63
140 60 143 -13 14 -139 -198 -193 -326 -104 -247 -140 -458 -124 -734 8 -127
7 -185 -4 -256 -13 -89 -15 -94 -60 -139 -57 -57 -61 -87 -6 -37 23 20 45 34
50 31 6 -4 10 -28 10 -55 0 -131 37 -362 75 -469 29 -82 -2 -62 -95 60 -125
166 -195 305 -241 482 -19 71 -22 110 -23 297 -1 187 2 229 22 322 30 144 72
259 144 401 34 64 58 120 54 124 -8 8 -23 -11 -81 -98 -148 -222 -235 -584
-215 -899 8 -122 42 -236 120 -395 45 -93 49 -107 54 -195 11 -202 53 -389
107 -488 12 -20 44 -74 71 -120 28 -45 48 -85 45 -89 -9 -8 -136 69 -205 124
-89 72 -208 191 -266 268 -151 202 -273 455 -327 680 -70 295 -2 686 191 1088
23 48 40 90 37 93 -3 3 -24 -27 -47 -66 -119 -203 -212 -468 -241 -685 -18
-135 -7 -402 20 -500 52 -184 164 -436 252 -566 28 -41 39 -66 33 -74 -98
-132 -125 -205 -126 -341 0 -95 17 -175 53 -246 20 -39 26 -83 9 -73 -5 3 -23
34 -39 68 -16 34 -61 106 -100 160 -76 106 -105 172 -127 286 -8 41 -16 77
-19 79 -29 30 -254 -164 -362 -313 -12 -17 -24 -27 -28 -23 -4 4 2 58 14 120
11 62 30 169 42 238 32 192 70 280 165 384 46 49 52 74 18 68 -10 -2 -82 -6
-159 -9 -148 -6 -242 6 -390 49 -38 11 -83 23 -100 28 -97 27 -162 56 -335
152 -193 107 -233 132 -234 143 -1 6 31 13 69 16 123 12 250 65 350 148 60 49
137 152 205 272 29 52 71 118 93 147 58 76 47 80 -115 48 -238 -48 -288 -63
-426 -132 -73 -37 -135 -64 -138 -62 -5 6 103 150 197 263 118 142 278 264
460 352 65 32 118 62 116 67 -1 4 -52 21 -112 36 -61 16 -130 35 -155 44 -112
41 -288 163 -404 280 -73 73 -366 439 -366 456 0 13 -4 14 60 -12 81 -32 227
-30 328 5 95 33 204 96 295 169 263 214 393 278 642 316 168 26 143 53 -77 83
-163 22 -307 2 -480 -66 -38 -15 -15 17 35 49 199 127 415 195 642 202 66 2
121 7 123 12 1 5 -23 29 -53 52 -60 47 -125 131 -170 220 -36 71 -92 235 -110
319 -12 56 -55 350 -55 373 0 21 21 3 50 -42 78 -121 236 -196 455 -216 44 -4
217 -8 385 -9 342 -1 345 -2 512 -86 43 -21 80 -39 84 -39 13 0 -21 32 -75 70
-66 47 -100 87 -140 167 -46 92 -55 136 -55 288 -1 119 2 151 22 215 22 70
138 386 149 403 10 17 21 3 47 -65z m1421 -1078 c-3 -5 -37 -30 -75 -55 -166
-107 -309 -302 -382 -520 -33 -100 -32 -273 2 -359 24 -63 62 -110 83 -104 7
3 34 33 60 69 123 165 207 245 319 302 237 120 486 98 833 -73 153 -76 278
-161 398 -271 99 -90 224 -232 209 -237 -6 -2 -39 15 -73 38 -87 60 -269 145
-371 174 -154 44 -294 61 -508 61 -207 -1 -301 -13 -519 -71 -106 -28 -147
-49 -209 -111 -52 -51 -66 -91 -51 -147 35 -133 155 -262 384 -412 232 -152
364 -205 547 -220 77 -7 83 -9 137 -54 72 -60 164 -159 260 -279 93 -117 191
-255 191 -270 0 -5 -19 -15 -42 -22 -66 -17 -156 -57 -215 -95 -29 -19 -60
-34 -69 -34 -34 0 -184 113 -280 212 -108 110 -171 196 -210 285 -37 84 -33
93 56 115 41 10 116 32 165 49 161 57 133 65 -64 20 -278 -65 -532 -77 -726
-36 -163 34 -303 116 -416 243 -169 190 -147 496 47 645 29 23 51 43 49 45
-10 10 -96 -41 -135 -81 -25 -25 -59 -49 -75 -52 -17 -4 -62 -25 -101 -46
-311 -167 -553 -158 -723 27 -105 114 -147 249 -138 439 5 109 33 232 52 228
5 -1 14 -26 20 -55 16 -78 61 -155 136 -228 117 -116 291 -199 502 -239 107
-21 271 -28 281 -13 2 4 -20 21 -50 36 -130 68 -210 254 -185 431 35 245 165
416 406 537 89 45 169 72 320 107 130 31 170 36 160 21z m-675 -1277 c0 -16
-58 -150 -88 -203 -87 -159 -116 -365 -73 -533 25 -97 52 -148 108 -209 26
-26 43 -51 40 -55 -11 -10 -135 58 -183 100 -126 111 -178 286 -139 472 33
157 113 282 248 383 68 50 87 60 87 45z m-46 -346 c8 -65 56 -163 116 -239 28
-34 50 -71 50 -84 0 -12 -7 -56 -16 -99 -9 -42 -19 -106 -22 -143 -4 -36 -12
-67 -18 -69 -17 -6 -82 65 -110 120 -58 113 -81 347 -49 497 8 40 18 77 21 82
10 16 20 -10 28 -65z m247 -365 c103 -79 257 -130 411 -139 62 -3 121 -10 130
-14 12 -6 18 -28 23 -76 36 -396 79 -678 136 -879 50 -178 168 -462 222 -536
11 -15 18 -30 15 -33 -9 -9 -218 73 -307 121 -243 129 -445 337 -551 568 -80
175 -139 399 -143 548 -2 73 -2 73 26 76 36 4 34 16 -8 41 -34 20 -35 23 -35
78 0 32 5 92 10 133 18 140 23 148 71 112z m828 -144 c5 -13 25 -63 44 -113
19 -49 49 -139 67 -200 36 -125 104 -294 162 -399 43 -78 43 -93 0 -145 -21
-25 -34 -32 -49 -27 -30 10 -202 164 -256 231 -27 33 -73 104 -103 157 -44 76
-58 113 -69 175 -20 113 -38 291 -31 308 4 11 21 15 58 16 29 0 71 4 93 8 64
14 75 12 84 -11z m-1166 -142 c51 -25 113 -50 140 -57 26 -6 49 -15 52 -19 3
-4 -4 -43 -14 -86 -23 -92 -51 -335 -51 -438 0 -39 7 -114 14 -166 8 -52 11
-99 7 -103 -5 -5 -32 -1 -61 9 -48 16 -54 21 -77 70 -27 60 -75 214 -105 344
-16 65 -21 122 -22 240 -1 141 8 250 20 250 3 0 46 -20 97 -44z m2089 -134
c101 -98 113 -122 63 -122 -18 0 -39 21 -88 84 -87 112 -102 136 -87 136 6 0
57 -44 112 -98z m-516 -283 c41 -27 74 -54 74 -60 0 -15 -101 -109 -116 -109
-25 0 -194 331 -194 378 0 10 32 -18 82 -71 44 -49 114 -111 154 -138z m-1341
101 c18 -161 96 -396 177 -533 53 -88 207 -250 317 -332 153 -115 383 -216
521 -229 25 -2 60 -7 79 -11 23 -6 35 -4 41 5 10 17 7 25 -65 145 -70 118
-150 293 -193 425 -29 87 -92 334 -92 359 0 21 15 10 40 -27 64 -97 172 -208
252 -260 32 -20 58 -43 58 -50 0 -7 -7 -29 -15 -49 -15 -36 -15 -36 5 -18 11
10 20 24 20 30 0 26 33 23 104 -9 41 -19 120 -49 176 -67 98 -31 103 -31 116
-14 17 24 9 38 -76 132 -38 41 -86 100 -107 130 l-38 55 69 64 c37 35 76 64
85 64 9 0 59 -19 111 -41 52 -23 180 -77 284 -121 104 -43 206 -88 227 -98 35
-18 39 -18 54 -4 10 10 13 24 9 38 -12 39 -106 220 -165 318 -33 54 -59 102
-59 107 0 6 12 14 27 17 23 6 33 1 67 -38 69 -76 213 -285 270 -392 54 -99
111 -239 118 -287 2 -18 9 -24 28 -24 21 0 28 8 43 54 14 41 35 216 37 306 0
27 23 -25 69 -163 91 -270 101 -317 101 -484 0 -80 5 -249 11 -374 12 -256 5
-325 -40 -421 -65 -136 -241 -298 -684 -628 -509 -378 -692 -452 -1060 -425
-331 24 -696 59 -940 91 -359 46 -524 120 -612 276 -30 53 -244 507 -252 536
-3 11 2 23 13 32 18 12 14 22 -62 177 -45 89 -86 179 -92 198 -7 19 -23 71
-37 115 -38 116 -85 329 -76 338 5 5 24 -13 44 -40 42 -57 261 -273 276 -273
7 0 16 11 22 24 9 18 7 31 -9 62 -75 151 -134 402 -144 614 -2 52 0 65 13 68
10 2 22 -15 38 -52 30 -74 84 -156 160 -244 68 -79 221 -212 245 -212 30 0 36
33 21 116 -33 194 -49 474 -28 495 12 12 175 -5 220 -22 12 -4 45 -43 74 -86
28 -43 94 -120 146 -170 137 -134 169 -125 114 33 -18 51 -30 98 -26 103 7 12
77 -21 185 -88 66 -40 95 -46 50 -10 -47 37 -135 95 -195 128 -33 19 -62 35
-63 36 -2 2 -13 43 -25 92 -18 75 -21 121 -21 318 -1 224 6 307 24 275 4 -8
11 -44 15 -80z m1900 -75 c110 -187 175 -326 148 -313 -83 36 -493 251 -493
257 0 25 241 133 285 128 12 -1 34 -27 60 -72z m-2291 -73 c9 -57 32 -149 51
-205 53 -150 53 -151 24 -144 -13 4 -59 10 -102 13 -52 5 -81 12 -84 20 -7 19
14 169 38 274 32 138 40 163 49 154 5 -5 16 -55 24 -112z m1744 -329 c34 -47
61 -88 58 -91 -10 -10 -196 93 -196 109 0 19 44 69 59 68 9 0 44 -39 79 -86z
m1710 22 c188 -90 282 -257 282 -500 0 -125 -24 -225 -81 -343 -82 -169 -276
-321 -431 -338 l-56 -7 -4 64 c-3 70 -4 69 69 120 90 62 195 233 214 348 11
73 4 141 -21 191 -23 45 -83 105 -122 121 -27 11 -30 15 -24 48 3 20 11 53 17
75 l11 38 45 -5 c70 -8 121 -50 167 -139 32 -62 38 -86 40 -139 0 -36 -5 -79
-13 -98 -13 -30 -13 -35 3 -47 26 -18 42 -8 60 37 67 166 -73 422 -247 454
-21 4 -39 10 -41 14 -4 6 11 103 19 129 7 20 36 14 113 -23z m-3643 -75 c3 -5
8 -81 10 -167 1 -87 9 -202 15 -256 7 -54 9 -101 5 -105 -8 -8 -93 83 -165
178 -54 70 -111 173 -136 242 -14 39 -13 44 3 56 19 13 61 26 158 47 74 17
102 18 110 5z m484 -78 c31 -15 37 -25 53 -87 10 -38 18 -74 18 -79 0 -17 -33
20 -81 88 -67 95 -64 115 10 78z m3030 -291 c71 -71 76 -185 13 -322 -44 -97
-147 -217 -168 -196 -4 3 -10 90 -15 193 -8 187 -8 187 16 218 13 17 35 57 49
89 31 70 50 73 105 18z m-4346 -645 c42 -51 45 -66 18 -90 -11 -10 -29 -41
-41 -69 -42 -96 -9 -258 53 -265 22 -3 27 1 27 18 0 11 -6 31 -14 43 -20 32
-29 110 -16 155 11 43 45 92 63 92 7 0 32 -17 56 -38 l44 -38 -18 -53 c-69
-207 114 -420 361 -421 l50 0 34 -70 c40 -83 36 -98 -31 -118 -64 -19 -237
-10 -312 17 -172 61 -318 206 -403 401 -27 60 -29 74 -29 190 0 116 2 129 28
185 29 62 62 105 82 105 6 0 27 -20 48 -44z m326 -288 c36 -23 76 -47 89 -55
23 -14 108 -183 119 -237 6 -28 5 -28 -28 -21 -81 16 -138 36 -175 63 -50 36
-94 117 -101 185 -5 49 8 107 24 107 3 0 36 -19 72 -42z"/>
<path d="M5195 3353 c-131 -67 -233 -178 -291 -318 l-16 -40 22 20 c12 11 49
57 81 102 70 96 122 144 235 215 46 29 83 56 84 61 0 14 -27 5 -115 -40z"/>
<path d="M5465 3331 c-80 -20 -176 -66 -244 -115 -66 -49 -182 -172 -223 -236
-65 -102 -81 -140 -69 -166 15 -34 26 -30 56 21 95 162 347 334 545 371 70 13
99 14 175 5 107 -14 214 -44 274 -77 24 -13 49 -24 56 -24 14 0 63 95 71 140
7 33 4 35 -41 19 -27 -10 -43 -8 -116 20 -46 17 -113 38 -149 46 -87 20 -247
18 -335 -4z"/>
<path d="M3666 2951 c-3 -5 25 -32 63 -60 55 -41 116 -106 178 -190 2 -2 6 -1
10 2 8 9 -25 81 -60 129 -38 53 -178 140 -191 119z"/>
<path d="M3193 2851 c-134 -37 -240 -100 -363 -217 -65 -63 -83 -74 -126 -82
l-49 -9 62 -61 c34 -34 71 -62 81 -62 11 0 41 27 71 65 74 91 170 176 241 214
98 52 152 65 275 64 98 0 120 -4 200 -32 109 -40 234 -104 285 -148 45 -39 60
-41 60 -9 0 33 -116 139 -206 189 -174 97 -374 130 -531 88z"/>
<path d="M4438 2364 c-16 -8 -28 -21 -28 -28 0 -13 89 -86 104 -86 11 0 6 60
-8 95 -16 38 -27 42 -68 19z"/>
<path d="M5106 2158 c-31 -72 -89 -98 -301 -132 -202 -33 -267 -47 -438 -97
-216 -62 -258 -62 -272 0 -13 59 -62 46 -51 -13 9 -46 53 -76 113 -76 23 0 91
15 151 34 195 62 294 85 472 110 187 27 256 44 308 76 60 37 92 120 49 128
-12 2 -22 -7 -31 -30z"/>
<path d="M7086 2302 c-27 -15 -58 -32 -69 -39 -26 -15 -217 -205 -217 -216 0
-5 -16 -28 -35 -51 -19 -24 -35 -48 -35 -53 0 -16 -209 -203 -227 -203 -26 0
-106 -51 -126 -81 -41 -62 -52 -115 -52 -254 0 -139 19 -230 56 -271 11 -11
19 -24 19 -29 0 -13 112 -125 125 -125 6 0 28 -18 50 -40 21 -21 52 -42 69
-46 17 -3 45 -12 61 -19 61 -27 257 -44 280 -25 8 6 24 11 37 9 13 -1 37 2 53
6 54 14 191 84 215 110 13 14 28 25 33 25 28 0 117 164 117 214 0 14 5 26 10
26 6 0 10 43 10 110 0 67 -4 110 -10 110 -5 0 -10 15 -10 34 0 19 -4 38 -10
41 -5 3 -10 13 -10 21 0 9 -11 40 -25 71 -24 52 -105 140 -200 216 -43 35 -44
59 -5 106 47 56 50 60 50 69 0 4 8 17 18 28 9 10 32 48 50 83 41 81 43 140 7
176 -22 22 -32 25 -102 25 -66 -1 -86 -5 -127 -28z m155 -42 c33 -18 24 -65
-26 -139 -25 -36 -74 -109 -110 -161 -35 -52 -71 -104 -78 -115 -8 -11 -41
-28 -74 -37 -33 -10 -87 -35 -120 -57 l-59 -40 -52 17 c-29 9 -52 22 -52 28 0
6 15 17 33 26 24 11 46 38 79 94 62 106 141 199 241 284 116 99 171 124 218
100z m-96 -488 c67 -34 161 -135 202 -217 61 -121 56 -308 -12 -414 -59 -94
-212 -196 -334 -222 -30 -6 -91 -9 -136 -7 -97 5 -182 40 -266 111 -29 26 -70
60 -90 76 -73 62 -119 183 -118 316 0 89 14 138 53 190 41 54 92 75 178 75 86
0 141 -21 181 -69 81 -97 29 -216 -82 -182 -21 6 -42 11 -47 11 -5 0 -9 -33
-9 -73 0 -57 -5 -80 -22 -110 -26 -43 -28 -57 -10 -57 21 0 87 60 87 80 0 33
22 35 43 4 11 -16 49 -57 84 -92 106 -106 239 -152 348 -122 71 20 62 28 -28
27 -75 -2 -89 1 -149 31 -76 37 -172 129 -212 202 -28 51 -28 51 19 75 11 6
30 26 43 45 32 48 26 112 -17 181 l-31 51 29 27 c16 15 55 41 87 59 54 29 64
32 119 26 33 -4 74 -13 90 -22z"/>
<path d="M1830 1214 c-88 -33 -110 -56 -110 -118 0 -46 4 -54 42 -93 23 -24
47 -43 53 -43 6 0 42 -16 81 -35 38 -19 77 -35 86 -35 21 0 98 -74 98 -94 0
-9 -4 -16 -10 -16 -5 0 -10 -10 -10 -23 0 -13 -4 -27 -10 -33 -32 -32 -46
-351 -17 -380 4 -4 7 -15 7 -25 0 -10 14 -41 30 -69 17 -28 30 -54 30 -59 0
-4 9 -16 20 -26 11 -10 20 -23 20 -30 0 -25 108 -95 147 -95 7 0 22 -4 33 -10
11 -5 29 -14 40 -20 26 -13 307 -13 315 0 3 6 17 10 30 10 13 0 40 9 62 19 21
11 50 22 65 25 15 4 38 16 50 29 13 12 35 28 51 36 15 8 27 20 27 28 0 7 14
27 30 45 17 17 33 43 36 57 8 35 16 57 47 121 15 30 27 67 27 82 0 15 5 30 10
33 6 3 10 44 10 90 0 46 -4 87 -10 90 -5 3 -10 17 -10 30 0 24 -6 41 -41 122
-11 24 -19 47 -19 51 0 5 -9 17 -20 27 -11 10 -20 23 -20 30 0 6 -17 27 -37
47 -59 55 -115 68 -299 68 l-158 0 -90 44 c-145 70 -170 80 -196 83 -43 3 -95
15 -105 23 -12 10 -264 22 -285 14z m165 -69 c133 -14 286 -62 404 -127 64
-35 80 -40 117 -34 60 8 64 -8 14 -59 l-43 -44 -69 6 c-51 4 -84 1 -128 -12
l-60 -18 -87 41 c-49 22 -112 50 -140 61 -143 56 -220 111 -207 146 9 23 83
56 114 51 14 -3 52 -8 85 -11z m851 -185 c135 -66 234 -298 192 -448 -46 -163
-92 -256 -161 -320 -192 -176 -539 -175 -680 3 -108 135 -140 283 -97 442 24
90 50 131 113 181 l42 34 97 -4 c53 -2 100 -7 104 -10 3 -4 7 -35 8 -70 4
-108 46 -158 140 -168 l51 -5 -1 -85 c-2 -156 -69 -294 -169 -351 -61 -34 -75
-49 -48 -49 38 0 120 49 161 95 68 78 122 214 122 310 0 23 3 45 6 48 4 4 20
-5 36 -18 22 -18 41 -25 74 -25 52 0 60 21 14 40 -35 15 -97 80 -114 122 l-13
30 -36 -36 c-47 -46 -104 -51 -141 -11 -66 71 -29 198 76 267 67 44 73 46 132
47 31 1 66 -7 92 -19z"/>
</g>
</svg>
